<?xml version="1.0" encoding="utf-8"?>
<!-- Generator: Adobe Illustrator 15.0.0, SVG Export Plug-In  -->
<!DOCTYPE svg PUBLIC "-//W3C//DTD SVG 1.1//EN" "http://www.w3.org/Graphics/SVG/1.1/DTD/svg11.dtd" [
	<!ENTITY ns_flows "http://ns.adobe.com/Flows/1.0/">
]>
<svg version="1.1"
	 xmlns="http://www.w3.org/2000/svg" xmlns:xlink="http://www.w3.org/1999/xlink" xmlns:a="http://ns.adobe.com/AdobeSVGViewerExtensions/3.0/"
	 x="0px" y="0px" width="2000px" height="2000px" viewBox="0 0 2000 2000"
	 overflow="visible" enable-background="new 0 0 2000 2000" xml:space="preserve">
<defs>
</defs>
<rect fill="#002147" width="2000" height="2000"/>
<g>
	<defs>
		<rect id="SVGID_1_" width="2000" height="2000"/>
	</defs>
	<clipPath id="SVGID_2_">
		<use xlink:href="#SVGID_1_"  overflow="visible"/>
	</clipPath>
	<path clip-path="url(#SVGID_2_)" fill="#FFFFFF" d="M1372.732,788.233c-32.931-18.811-66.979-38.261-83.192-60.08
		c-8.473-11.395-4.569-26.946-0.798-41.986c1.979-7.886,3.847-15.336,4.054-22.424c0.278-9.883-0.547-39.053-15.707-78.789
		c-0.037-0.189,0.019-0.373-0.028-0.563c-0.166-0.652-0.558-1.163-0.842-1.745c-18.35-46.843-56.615-107.881-136-169.39
		c-55.057-42.658-128.76-72.71-210.202-87.023c-0.368-0.069-0.68-0.264-1.062-0.29c-0.104-0.008-0.19,0.041-0.291,0.036
		c-51.322-8.899-105.679-11.474-160.407-7.02c-0.169,0.012-0.321-0.06-0.492-0.039c-0.111,0.013-0.193,0.083-0.303,0.1
		c-115.247,9.524-231.983,50.376-324.967,130.353C346.034,532.347,291.7,651.128,289.523,783.838
		c-1.055,64.15,10.664,126.984,33.116,183.633c0.037,0.107,0.012,0.216,0.051,0.323c0.04,0.108,0.132,0.176,0.174,0.281
		c22.865,57.448,56.794,108.5,99.778,147.999c159.182,146.291,3.64,409.575,2.054,412.222c-1.885,3.134-1.829,7.074,0.15,10.156
		c59.635,92.609,190.435,144.729,322.286,144.729c32.231,0,64.467-3.319,95.8-9.72c0.115,0.004,0.23,0.064,0.342,0.064
		c1.405-0.002,2.74-0.408,3.993-0.989c41.578-8.925,81.434-23.465,117.012-44.455c2.665-1.571,4.41-4.334,4.692-7.412
		c1.21-13.44,4.491-35.521,10.428-58.901c0.021-0.062,0.028-0.124,0.049-0.186c9.906-38.934,27.172-81.417,54.505-93.603
		c12.995-5.794,51.247-1.872,91.723,2.266c72.254,7.395,162.01,16.536,202.305-17.754c0.032-0.021,0.071-0.021,0.103-0.044
		c0.042-0.03,0.061-0.077,0.101-0.107c0.218-0.188,0.48-0.336,0.696-0.526c37.962-33.472,27.265-115.934,22.969-141.008
		c12.947-7.511,38.89-26.745,32.848-57.777c-3.565-18.281-22.996-31.773-45.495-47.391c-24.085-16.72-51.378-35.662-53.724-59.588
		c-2.693-27.556,49.521-69.871,84.066-97.872c26.59-21.547,40.606-33.252,43.862-43.132c4.316-13.131-5.62-23.934-15.228-34.377
		c-7.646-8.318-15.556-16.917-17.414-26.426c-0.966-4.972,16.232-17.235,26.515-24.563c22.312-15.908,50.073-35.705,45.326-63.064
		C1448.215,831.35,1413.237,811.37,1372.732,788.233 M1323.645,781.471c-2.51,23.578-8.761,45.865-19.273,67.273
		c-38.146-41.751-73.917-73.086-107.07-96.343c17.883-25.991,42.435-49.734,72.435-69.423c-4.322,17.307-9.146,38.449,4.38,56.641
		C1285.548,754.996,1303.491,768.64,1323.645,781.471 M759.414,1228.434c-20.437-46.786-55.058-94.381-101.928-139.205
		c36.056-79.168,65.191-123.609,111.376-109.199c56.192,17.507,98.412,89.518,143.11,165.759c1.523,2.596,3.073,5.23,4.607,7.844
		C857.486,1172.471,803.784,1198.252,759.414,1228.434 M757.444,1361.438c-10.312,41.635-30.587,68.6-54.249,72.132
		c-13.811,2.121-26.937-4.55-34.828-17.742c-11.202-18.708-12.244-53.362,18.408-94.495c16.514-22.166,38.102-43.417,63.735-63.073
		C762.698,1294.532,765.325,1329.595,757.444,1361.438 M930.916,1140.095c-0.786-1.342-1.579-2.687-2.365-4.026
		c-46.631-79.54-90.681-154.665-153.966-174.382c-61.792-19.215-98.163,39.67-131.994,113.631c-0.077-0.068-0.145-0.139-0.222-0.207
		c-30.362-27.129-65.53-52.603-102.025-73.558c38.139-76.27,90.742-155.752,155.42-229.708c32.266,5.92,64.295,10.417,94.865,14.69
		c29.226,4.086,57.243,8.003,83.203,12.732c-15.49,42.061-14.523,90.015,6.484,131.195c19.863,38.923,52.251,61.023,89.227,61.023
		c0.957,0,1.933-0.019,2.899-0.047c33.467-1.042,63.172-20.318,75.669-49.103c13.191-30.371,4.673-66.104-23.362-98.032
		c-27.387-31.202-70.781-47.78-123.51-59.189c11.699-21.19,28.579-39.641,49.924-52.819c66.144-40.852,143.696-22.368,219.22,26.886
		c-17.814,31.636-26.93,65.77-25.661,99.843c1.459,39.298,16.246,76.724,42.876,110.981
		c-35.538,24.073-78.658,48.169-130.207,73.092C1006.256,1067.82,963.547,1101.014,930.916,1140.095 M308.98,808.179
		c12.275,1.008,24.334,1.651,35.994,1.648c95.278,0,170.106-32.127,226.039-71.301c33.385,12.777,68.33,21.987,103.333,29.157
		c-62.32,72.619-113.222,150.113-150.672,224.641c-66.111-35.025-134.819-53.921-186.129-39.793
		C320.676,907.442,310.735,858.492,308.98,808.179 M1177.95,471.843c39.525,39.443,62.862,76.828,76.528,108.098
		c-91.015,20.328-173.972,4.127-234.486-46.309c-2.562-2.135-5.008-4.386-7.464-6.628
		C1065.016,502.412,1120.309,483.505,1177.95,471.843 M1007.691,548.39c47.109,39.261,106.481,59.415,172.373,59.415
		c26.239,0,53.559-3.372,81.504-9.831c9.746,27.727,11.775,48.973,12.017,60.048c-38.712,22.633-70.072,51.502-92.178,83.699
		c-125.136-80.182-210.253-44.362-240.34-25.779c-25.97,16.034-46.096,38.97-59.362,65.24c-27.594-5.174-57.355-9.335-88.411-13.674
		c-27.143-3.794-54.901-7.697-82.603-12.454c79.12-86.927,175.011-164.851,283.394-219.031
		C998.471,540.289,1002.968,544.453,1007.691,548.39 M892.851,802.973c51.144,10.682,92.736,25.839,117.458,54.005
		c23.269,26.496,30.427,54.09,20.182,77.705c-9.411,21.66-32.97,36.751-58.64,37.549c-30.446,1.136-57.552-17.461-74.421-50.506
		C878.393,884.422,878.017,840.808,892.851,802.973 M1163.919,858.306c-1.117-29.983,6.894-60.102,22.447-88.258
		c37.196,26.461,73.661,59.947,107.767,97.088c-19.727,31.79-49.502,61.889-90.812,91.828
		C1178.812,927.674,1165.239,893.732,1163.919,858.306 M1161.16,455.889c-56.735,12.608-111.18,32.019-162.914,56.848
		c-40.223-44.091-62.269-103.715-60.761-165.896c73.889,14.498,140.559,42.546,190.968,81.605
		C1140.321,437.643,1151.145,446.802,1161.16,455.889 M918.392,343.393c-2.343,66.268,20.172,130.089,61.971,178.086
		c-111.942,57.058-210.53,138.936-291.42,229.65c-34.082-6.504-67.783-14.697-99.885-25.989
		c16.086-12.582,30.46-25.552,42.943-38.208C738.055,579.404,785.915,429.389,779.195,337.04
		C826.639,333.871,873.662,336.155,918.392,343.393 M598.478,474.921c-32.98,19.678-81.093,12.604-133.353-19.223
		c53.182-43.31,113.727-74.068,176.976-93.56C645.08,415.63,629.428,456.437,598.478,474.921 M449.813,468.682
		c38.027,24.224,74.058,36.676,105.721,36.676c19.403,0,37.183-4.621,52.795-13.942c38.187-22.805,57.165-71.716,52.621-134.693
		c32.679-8.868,65.907-14.908,99.081-18.159c6.427,89.102-43.283,235.078-141.71,334.875c-14.324,14.523-31.192,29.49-50.493,43.698
		c-77.661-31.656-143.545-84.715-178.45-181.692C406.879,511.271,427.07,488.913,449.813,468.682 M376.147,554.883
		c36.357,90.2,100.094,142.493,173.542,174.897c-59.191,38.692-139.017,67.814-240.913,59.054c0.012-1.562-0.063-3.113-0.037-4.677
		C310.123,699.745,333.607,621.327,376.147,554.883 M435.645,1101.926c-38.43-35.315-69.171-80.466-90.84-131.252
		c42.821-10.585,105.562,4.728,170.338,38.896c-21.179,44.355-37.417,87.386-48.254,127.426
		C457.753,1124.503,447.418,1112.745,435.645,1101.926 M481.165,1158.908c10.24-43.432,27.387-90.949,50.742-140.16
		c33.272,19.13,66.636,42.973,97.664,70.694c1.628,1.454,3.11,2.939,4.71,4.4c-3.322,7.518-6.634,15.125-9.965,22.775
		c-28.982,66.604-61.518,141.123-110.754,185.354C515.335,1247.887,504.447,1199.744,481.165,1158.908 M444.221,1532.902
		c5.289-9.371,16.605-30.52,28.616-59.268c59.87-46.424,108.381-5.715,188.362,69.996c43.274,40.969,91.547,86.608,149.87,116.282
		C668.299,1680.014,512.119,1632.199,444.221,1532.902 M844.264,1653.919c-66.873-26.809-121.558-78.516-169.855-124.244
		c-66.038-62.52-124.087-117.401-189.97-85.93c6.856-19.133,13.384-40.344,18.563-62.937c4.138-18.035,6.94-35.513,8.711-52.525
		c60.958-45.061,97.744-129.364,130.224-203.995c2.458-5.651,4.862-11.13,7.243-16.519c43.867,42.92,75.852,88.073,94.321,131.975
		c-29.198,21.696-53.695,45.359-72.131,70.105c-30.85,41.395-38.131,84.704-19.488,115.85
		c10.415,17.395,27.697,27.457,46.359,27.457c2.58,0,5.179-0.188,7.797-0.582c15.18-2.266,52.41-15.236,70.058-86.52
		c9.176-37.037,5.611-77.775-9.476-119.569c38.838-27.067,85.514-50.601,137.03-68.686c-21.27,34.574-35.47,72.566-41.442,112.74
		c-14.777,99.392,20.787,197.769,97.499,270.924c-5.58,23.246-8.317,43.393-9.351,52.483
		C917.843,1632.491,881.808,1645.651,844.264,1653.919 M965.473,1540.24c-66.957-67.94-97.617-157.045-84.266-246.876
		c6.371-42.838,22.727-83.107,47.614-119.031c30.11,50.538,63.294,101.801,104.415,139.588
		c-8.794,34.886-13.025,81.336-12.793,139.703C993.146,1469.387,975.989,1505.549,965.473,1540.24 M1127.637,1451.13
		c-37.185-3.812-67.98-6.875-88.021-4.075c0.097-52.268,3.969-90.861,10.044-119.194c23.106,18.165,48.587,32.071,77.358,39.217
		c15.115,3.758,30.681,5.644,46.743,5.644c23.106,0,47.315-4.125,72.65-11.962c18.927,22.617,39.81,49.652,62.819,81.782
		C1271.863,1465.893,1192.345,1457.754,1127.637,1451.13 M1054.796,1307.826c10.654-34.838,25.333-48.668,38.735-53
		c23.231-7.505,65.149,5.515,139.269,90.02c-36.468,10.109-70.012,11.317-101.157,3.584
		C1102.904,1341.29,1077.628,1326.976,1054.796,1307.826 M1323.171,1429.098c-20.158-28.062-39.284-53.058-57.401-75.01
		c21.84-8.268,44.564-19.335,68.252-33.22C1338.46,1350.856,1341.136,1402.396,1323.171,1429.098 M1328.242,1221.425
		c17.461,12.122,35.521,24.657,37.596,35.277c4.859,24.967-28.27,39.932-28.579,40.072c-0.241,0.105-0.408,0.3-0.638,0.422
		c-0.186,0.099-0.393,0.101-0.572,0.212c-29.377,18.154-57.062,31.847-83.265,41.167
		c-70.218-81.572-124.647-115.088-165.163-102.035c-21.16,6.841-37.184,25.854-48.304,57.14
		c-35.712-34.907-65.516-81.326-93.901-129.027c99.65-27.857,213.239-35.197,322.122-9.727
		C1274.146,1183.826,1302.755,1203.729,1328.242,1221.425 M1267.214,1135.141c-105.613-23.767-215.408-17.639-313.413,7.769
		c29.773-32.929,67.533-61.035,111.959-82.511c52.736-25.496,97.176-50.574,134.007-75.896
		c28.375,31.467,67.286,59.878,115.781,84.102C1291.808,1090.256,1271.729,1113.217,1267.214,1135.141 M1395.167,999.005
		c-2.103,5.375-21.853,21.383-37.728,34.246c-8.519,6.905-17.453,14.163-26.266,21.643c-48.8-23.488-87.688-51.1-115.664-81.608
		c40.49-29.735,70.723-59.939,91.624-91.678c19.447,22.085,38.029,45.234,55.425,68.788c3.532,13.649,13.396,24.499,21.48,33.284
		C1388.205,988.201,1395.945,996.621,1395.167,999.005 M1396.124,904.036c-10.56,7.527-20.662,14.847-27.23,22.713
		c-17.444-23.076-34.473-43.984-51.077-62.953c12.338-22.801,20.11-46.478,23.793-71.372c7.146,4.212,14.382,8.374,21.592,12.491
		c33.251,18.995,67.638,38.637,70.472,54.986C1436.355,875.349,1414.982,890.591,1396.124,904.036"/>
	<path clip-path="url(#SVGID_2_)" fill="#FFFFFF" d="M1700.434,1116.06l-203.58,10.621c-5.301,0.277-9.373,4.795-9.101,10.096
		c0.271,5.128,4.513,9.105,9.589,9.105c0.169,0,0.338-0.005,0.507-0.014l203.579-10.622c5.302-0.275,9.373-4.793,9.102-10.095
		C1710.246,1119.851,1705.575,1115.755,1700.434,1116.06"/>
	<path clip-path="url(#SVGID_2_)" fill="#FFFFFF" d="M1488.888,1068.759l118.06-86.178c4.287-3.129,5.226-9.138,2.092-13.421
		c-3.114-4.283-9.139-5.235-13.426-2.097l-118.06,86.177c-4.287,3.129-5.226,9.139-2.092,13.421
		c1.876,2.581,4.804,3.945,7.769,3.945C1485.191,1070.606,1487.181,1070.007,1488.888,1068.759"/>
	<path clip-path="url(#SVGID_2_)" fill="#FFFFFF" d="M1614.875,1270.88l-119.513-69.074c-4.598-2.664-10.471-1.083-13.126,3.511
		c-2.655,4.592-1.079,10.47,3.518,13.125l119.514,69.073c1.511,0.877,3.162,1.29,4.795,1.29c3.321,0,6.549-1.722,8.331-4.799
		C1621.049,1279.413,1619.473,1273.534,1614.875,1270.88"/>
</g>
</svg>
